<svg width="187" height="187" viewBox="0 0 187 187" fill="none" xmlns="http://www.w3.org/2000/svg">
<path fill-rule="evenodd" clip-rule="evenodd" d="M90.4558 2.9522C93.4159 1.29067 97.0606 1.29067 100.017 2.9522C114.644 11.1641 158.66 35.8831 173.291 44.095C176.251 45.7522 178.074 48.8221 178.074 52.1456C178.074 68.5695 178.074 118.003 178.074 134.427C178.074 137.75 176.251 140.82 173.291 142.482C158.664 150.694 114.648 175.413 100.017 183.625C97.0562 185.286 93.4115 185.286 90.4558 183.625C75.8285 175.413 31.8125 150.694 17.1813 142.482C14.2255 140.82 12.4027 137.754 12.4027 134.431C12.4027 118.007 12.4027 68.5739 12.4027 52.15C12.4027 48.8265 14.2255 45.7565 17.1857 44.095C31.8081 35.8831 75.8328 11.1641 90.4558 2.9522Z" fill="#57595B"/>
<path fill-rule="evenodd" clip-rule="evenodd" d="M13.7285 138.662C12.5689 137.109 12.4027 135.635 12.4027 133.651C12.4027 117.323 12.4027 68.1732 12.4027 51.8406C12.4027 48.535 14.2212 45.4821 17.1726 43.8337C31.7474 35.6698 75.6152 11.0947 90.1895 2.92652C93.1414 1.27373 97.1393 1.30823 100.091 2.9615C114.666 11.1253 158.385 35.4911 172.96 43.6549C174.137 44.3181 175.035 45.1158 175.837 46.1671L13.7285 138.662Z" fill="#57595B"/>
<path fill-rule="evenodd" clip-rule="evenodd" d="M95.2381 32.2334C128.926 32.2334 156.275 59.5908 156.275 93.2893C156.275 126.987 128.926 154.345 95.2381 154.345C61.5503 154.345 34.2017 126.987 34.2017 93.2893C34.2017 59.5908 61.5503 32.2334 95.2381 32.2334ZM95.2381 62.7613C112.08 62.7613 125.756 76.4379 125.756 93.2893C125.756 110.136 112.08 123.817 95.2381 123.817C78.3964 123.817 64.7199 110.136 64.7199 93.2893C64.7199 76.4379 78.392 62.7613 95.2381 62.7613Z" fill="white"/>
<path fill-rule="evenodd" clip-rule="evenodd" d="M175.828 46.209C178.078 48.3155 178.035 51.4904 178.035 53.9895C178.035 70.5397 177.895 117.614 178.074 134.164C178.091 135.891 177.52 137.71 176.665 139.079L93.4641 93.2876L175.828 46.209Z" fill="#57595B"/>
<path fill-rule="evenodd" clip-rule="evenodd" d="M125.756 80.2051H134.476V106.372H125.756V80.2051ZM156.275 80.2051H164.994V106.372H156.275V80.2051Z" fill="white"/>
<path fill-rule="evenodd" clip-rule="evenodd" d="M117.037 88.9268H143.196V97.6488H117.037V88.9268ZM147.555 88.9268H173.714V97.6488H147.555V88.9268Z" fill="white"/>
</svg>
