<svg width="178" height="178" viewBox="0 0 178 178" fill="none" xmlns="http://www.w3.org/2000/svg">
<mask id="mask0_303_13" style="mask-type:luminance" maskUnits="userSpaceOnUse" x="0" y="0" width="178" height="178">
<path d="M0 0H177.323V177.323H0V0Z" fill="white"/>
</mask>
<g mask="url(#mask0_303_13)">
<path d="M173.977 80.7664L96.5594 3.34834C96.4273 3.21619 96.2922 3.08696 96.1537 2.96162C96.0153 2.83628 95.8739 2.71385 95.7291 2.59531C95.5849 2.47676 95.4376 2.36211 95.2875 2.25037C95.1374 2.13911 94.9848 2.03175 94.8294 1.92778C94.6739 1.82381 94.516 1.72373 94.3557 1.62802C94.1959 1.53183 94.0331 1.43952 93.8684 1.35159C93.7037 1.26317 93.5366 1.17912 93.3675 1.09944C93.1989 1.01928 93.0279 0.943977 92.8555 0.872075C92.6825 0.800658 92.5086 0.733614 92.3327 0.670457C92.1564 0.607299 91.979 0.549 91.8002 0.494587C91.6215 0.440174 91.4417 0.39062 91.26 0.344952C91.0788 0.29977 90.8966 0.258961 90.7135 0.222038C90.5303 0.185601 90.3462 0.154022 90.1611 0.12633C89.9765 0.0991235 89.7909 0.0762896 89.6048 0.0578282C89.4187 0.0393667 89.2327 0.0257635 89.0461 0.0165329C88.8595 0.0073021 88.6725 0.00292969 88.4855 0.00292969C88.2989 0.00292969 88.1119 0.0073021 87.9253 0.0165329C87.7387 0.0257635 87.5527 0.0393667 87.3666 0.0578282C87.1805 0.0762896 86.9949 0.0991235 86.8103 0.12633C86.6252 0.154022 86.4411 0.185601 86.2579 0.222038C86.0748 0.258961 85.8926 0.29977 85.7114 0.344952C85.5297 0.39062 85.3499 0.440174 85.1711 0.494587C84.9924 0.549 84.815 0.607299 84.6387 0.670457C84.4628 0.733614 84.2884 0.800658 84.1159 0.872075C83.9434 0.943977 83.7724 1.01928 83.6039 1.09944C83.4348 1.17912 83.2677 1.26317 83.103 1.35159C82.9383 1.43952 82.7755 1.53183 82.6157 1.62802C82.4554 1.72373 82.2975 1.82381 82.142 1.92778C81.9865 2.03175 81.834 2.13911 81.6839 2.25037C81.5337 2.36211 81.3865 2.47676 81.2422 2.59531C81.0975 2.71385 80.9561 2.83628 80.8176 2.96162C80.6792 3.08696 80.5441 3.21619 80.412 3.34834L64.3422 19.4181L84.7344 39.8102C89.4775 38.1477 94.9081 39.284 98.6873 43.0633C98.9108 43.2868 99.126 43.5185 99.3335 43.7575C99.5409 43.9961 99.7396 44.2424 99.9296 44.495C100.12 44.7481 100.301 45.0071 100.473 45.2728C100.645 45.5381 100.807 45.8092 100.961 46.0861C101.114 46.363 101.257 46.6448 101.39 46.9319C101.524 47.2186 101.647 47.5101 101.76 47.8054C101.872 48.1008 101.975 48.4001 102.067 48.7028C102.16 49.0054 102.241 49.3105 102.312 49.619C102.382 49.9275 102.442 50.238 102.491 50.5504C102.54 50.8628 102.578 51.1771 102.605 51.4919C102.632 51.8072 102.648 52.123 102.654 52.4393C102.658 52.7555 102.652 53.0718 102.635 53.3876C102.618 53.7034 102.59 54.0187 102.551 54.3325C102.512 54.6464 102.462 54.9583 102.401 55.2687C102.34 55.5792 102.268 55.8872 102.186 56.1928C102.103 56.4983 102.01 56.8005 101.907 57.0993L121.562 76.7544C126.316 75.1143 131.802 76.1724 135.598 79.9794C135.756 80.1368 135.909 80.2976 136.059 80.4628C136.208 80.6275 136.353 80.7956 136.494 80.9675C136.636 81.1395 136.773 81.3149 136.905 81.4937C137.038 81.6725 137.166 81.8542 137.29 82.0393C137.413 82.2239 137.532 82.4119 137.647 82.6028C137.761 82.7938 137.871 82.9871 137.976 83.1834C138.081 83.3797 138.181 83.5779 138.276 83.779C138.371 83.9802 138.461 84.1837 138.547 84.3892C138.632 84.5947 138.712 84.8022 138.787 85.0116C138.862 85.221 138.931 85.4323 138.996 85.6451C139.061 85.8579 139.12 86.0726 139.174 86.2883C139.228 86.504 139.277 86.7212 139.32 86.9393C139.364 87.1575 139.402 87.3766 139.435 87.5966C139.467 87.8167 139.495 88.0378 139.517 88.2588C139.538 88.4804 139.555 88.7024 139.566 88.9244C139.577 89.1464 139.582 89.369 139.582 89.5915C139.582 89.814 139.577 90.0365 139.566 90.2585C139.555 90.481 139.539 90.7026 139.517 90.9241C139.495 91.1456 139.468 91.3662 139.435 91.5863C139.403 91.8063 139.365 92.0255 139.321 92.2436C139.278 92.4622 139.229 92.6789 139.175 92.8946C139.121 93.1108 139.062 93.325 138.997 93.5378C138.932 93.7506 138.863 93.962 138.788 94.1714C138.713 94.3812 138.633 94.5887 138.548 94.7942C138.463 94.9997 138.372 95.2028 138.277 95.4039C138.182 95.605 138.082 95.8037 137.977 96C137.872 96.1963 137.762 96.3896 137.648 96.5806C137.534 96.7715 137.415 96.9595 137.291 97.1446C137.167 97.3292 137.04 97.5114 136.907 97.6897C136.774 97.8685 136.637 98.0439 136.496 98.2159C136.355 98.3878 136.21 98.5564 136.06 98.7211C135.911 98.8858 135.757 99.0471 135.6 99.2045C135.443 99.3615 135.282 99.515 135.117 99.6646C134.952 99.8138 134.783 99.959 134.611 100.1C134.439 100.241 134.264 100.378 134.085 100.51C133.906 100.643 133.725 100.771 133.54 100.895C133.355 101.018 133.167 101.137 132.976 101.252C132.785 101.366 132.591 101.475 132.395 101.58C132.199 101.685 132.001 101.785 131.799 101.88C131.598 101.975 131.395 102.066 131.189 102.151C130.984 102.236 130.776 102.316 130.566 102.391C130.357 102.465 130.146 102.535 129.933 102.599C129.72 102.664 129.505 102.723 129.29 102.777C129.074 102.831 128.857 102.88 128.639 102.924C128.42 102.967 128.201 103.005 127.981 103.037C127.761 103.07 127.54 103.097 127.319 103.119C127.097 103.14 126.876 103.157 126.653 103.167C126.431 103.178 126.209 103.184 125.986 103.183C125.763 103.183 125.541 103.178 125.319 103.167C125.097 103.156 124.875 103.14 124.654 103.117C124.432 103.096 124.212 103.068 123.992 103.036C123.772 103.003 123.552 102.965 123.334 102.921C123.116 102.878 122.899 102.829 122.683 102.775C122.467 102.72 122.253 102.661 122.04 102.597C121.827 102.532 121.616 102.462 121.407 102.387C121.197 102.312 120.99 102.232 120.784 102.146C120.579 102.061 120.375 101.971 120.174 101.876C119.973 101.78 119.775 101.68 119.578 101.575C119.382 101.47 119.189 101.361 118.998 101.246C118.807 101.132 118.619 101.013 118.434 100.889C118.25 100.765 118.067 100.637 117.889 100.504C117.71 100.371 117.535 100.234 117.364 100.094C117.192 99.9522 117.023 99.807 116.858 99.6573C116.694 99.5077 116.532 99.3542 116.375 99.1968C112.386 95.2071 111.399 89.3335 113.416 84.4179L95.0854 66.0871V114.325C96.4248 114.988 97.6253 115.845 98.6873 116.896C98.8447 117.053 98.9978 117.214 99.1474 117.379C99.2966 117.544 99.4418 117.712 99.5827 117.884C99.7241 118.056 99.8606 118.231 99.9932 118.41C100.126 118.589 100.254 118.77 100.377 118.955C100.501 119.14 100.62 119.328 100.734 119.518C100.848 119.709 100.958 119.903 101.063 120.099C101.167 120.295 101.268 120.493 101.363 120.695C101.458 120.896 101.548 121.099 101.633 121.304C101.718 121.51 101.798 121.717 101.873 121.927C101.948 122.136 102.018 122.347 102.082 122.56C102.147 122.773 102.206 122.987 102.26 123.203C102.314 123.419 102.363 123.635 102.406 123.853C102.45 124.072 102.487 124.291 102.52 124.511C102.553 124.731 102.58 124.951 102.602 125.172C102.624 125.394 102.64 125.616 102.651 125.838C102.662 126.06 102.667 126.282 102.667 126.505C102.667 126.727 102.662 126.949 102.651 127.171C102.64 127.394 102.624 127.615 102.602 127.837C102.58 128.058 102.553 128.278 102.52 128.498C102.487 128.719 102.45 128.938 102.406 129.156C102.363 129.374 102.314 129.591 102.26 129.806C102.206 130.022 102.147 130.236 102.082 130.449C102.018 130.662 101.948 130.873 101.873 131.083C101.798 131.292 101.718 131.499 101.633 131.705C101.548 131.91 101.458 132.114 101.363 132.315C101.268 132.516 101.167 132.714 101.063 132.91C100.958 133.107 100.848 133.3 100.734 133.491C100.62 133.681 100.501 133.869 100.377 134.054C100.254 134.239 100.126 134.421 99.9932 134.599C99.8606 134.778 99.7241 134.953 99.5827 135.125C99.4418 135.297 99.2966 135.466 99.1474 135.63C98.9978 135.795 98.8447 135.956 98.6873 136.113C98.5299 136.271 98.3691 136.424 98.2044 136.573C98.0392 136.723 97.8711 136.868 97.6992 137.009C97.5272 137.15 97.3518 137.287 97.1735 137.419C96.9947 137.552 96.813 137.68 96.6279 137.803C96.4433 137.927 96.2553 138.046 96.0648 138.16C95.8739 138.274 95.6806 138.384 95.4843 138.489C95.288 138.593 95.0898 138.694 94.8887 138.789C94.6875 138.884 94.4845 138.974 94.2789 139.059C94.0734 139.144 93.866 139.224 93.6566 139.299C93.4472 139.374 93.2359 139.444 93.0231 139.508C92.8103 139.573 92.596 139.632 92.3803 139.686C92.1646 139.74 91.9479 139.789 91.7298 139.832C91.5117 139.876 91.2926 139.913 91.0725 139.947C90.8524 139.979 90.6318 140.006 90.4108 140.028C90.1892 140.05 89.9677 140.066 89.7452 140.077C89.5232 140.088 89.3012 140.093 89.0786 140.093C88.8561 140.093 88.6341 140.088 88.4116 140.077C88.1896 140.066 87.968 140.05 87.7465 140.028C87.5255 140.006 87.3049 139.979 87.0848 139.947C86.8647 139.913 86.6456 139.876 86.4275 139.832C86.2093 139.789 85.9927 139.74 85.777 139.686C85.5613 139.632 85.347 139.573 85.1342 139.508C84.9214 139.444 84.7101 139.374 84.5007 139.299C84.2913 139.224 84.0839 139.144 83.8783 139.059C83.6728 138.974 83.4698 138.884 83.2686 138.789C83.0675 138.694 82.8693 138.593 82.673 138.489C82.4767 138.384 82.2834 138.274 82.0924 138.16C81.902 138.046 81.714 137.927 81.5289 137.803C81.3443 137.68 81.1626 137.552 80.9838 137.419C80.805 137.287 80.6301 137.15 80.4581 137.009C80.2861 136.868 80.1176 136.723 79.9529 136.573C79.7882 136.424 79.6274 136.271 79.4699 136.113C79.3125 135.956 79.159 135.795 79.0094 135.63C78.8597 135.466 78.7145 135.298 78.5731 135.126C78.4322 134.954 78.2952 134.779 78.1626 134.6C78.03 134.422 77.9017 134.24 77.7778 134.055C77.6544 133.87 77.5349 133.682 77.4207 133.492C77.3061 133.301 77.1963 133.108 77.0913 132.911C76.9864 132.715 76.8863 132.517 76.7911 132.316C76.6959 132.114 76.6055 131.911 76.5205 131.706C76.4355 131.5 76.3553 131.293 76.28 131.084C76.2052 130.874 76.1352 130.663 76.0706 130.45C76.006 130.237 75.9467 130.023 75.8923 129.807C75.8384 129.592 75.7898 129.374 75.7461 129.156C75.7028 128.938 75.6645 128.719 75.6319 128.499C75.5994 128.279 75.5722 128.058 75.5503 127.837C75.5284 127.616 75.5119 127.394 75.5012 127.172C75.49 126.95 75.4847 126.727 75.4847 126.505C75.4847 126.282 75.49 126.06 75.5012 125.838C75.5119 125.616 75.5284 125.394 75.5503 125.172C75.5722 124.951 75.5994 124.73 75.6319 124.51C75.6645 124.29 75.7028 124.071 75.7461 123.853C75.7898 123.635 75.8384 123.418 75.8923 123.202C75.9467 122.986 76.006 122.772 76.0706 122.559C76.1352 122.346 76.2052 122.135 76.28 121.926C76.3553 121.716 76.4355 121.509 76.5205 121.303C76.6055 121.098 76.6959 120.895 76.7911 120.694C76.8863 120.493 76.9864 120.294 77.0913 120.098C77.1963 119.902 77.3061 119.708 77.4207 119.517C77.5349 119.327 77.6544 119.139 77.7778 118.954C77.9017 118.769 78.03 118.588 78.1626 118.409C78.2952 118.231 78.4322 118.055 78.5731 117.884C78.7145 117.712 78.8597 117.544 79.0094 117.379C79.159 117.214 79.3125 117.053 79.4699 116.896C80.7831 115.588 82.2406 114.597 83.9196 113.931V65.2452C82.3013 64.5801 80.7831 63.5992 79.4699 62.2807C79.2329 62.0441 79.005 61.7987 78.7864 61.5456C78.5678 61.292 78.3589 61.0306 78.1592 60.762C77.96 60.4928 77.7705 60.2169 77.5917 59.9341C77.4125 59.6514 77.2444 59.3623 77.0865 59.0669C76.9291 58.7715 76.7823 58.4708 76.6473 58.1643C76.5117 57.8582 76.3879 57.5477 76.2756 57.2319C76.1629 56.9166 76.0624 56.5979 75.9739 56.2749C75.885 55.9523 75.8083 55.6263 75.7437 55.2979C75.679 54.9695 75.6266 54.6391 75.5862 54.3068C75.5459 53.9745 75.5177 53.6412 75.5022 53.3065C75.4866 52.9722 75.4837 52.6375 75.493 52.3032C75.5017 51.9685 75.5236 51.6342 75.5571 51.3015C75.5911 50.9682 75.6372 50.6368 75.6955 50.3074C75.7538 49.9776 75.8243 49.6506 75.9069 49.3261C75.9895 49.0015 76.0842 48.6809 76.1906 48.3632C76.2965 48.0459 76.4146 47.7331 76.5443 47.4241L56.4291 27.32L3.34271 80.3505C3.21057 80.4827 3.08182 80.6182 2.95599 80.7567C2.83016 80.8951 2.70822 81.0365 2.58968 81.1808C2.47065 81.3256 2.35599 81.4728 2.24425 81.6229C2.133 81.773 2.02515 81.9256 1.92118 82.0811C1.81721 82.2365 1.71713 82.3944 1.62094 82.5547C1.52474 82.7151 1.43292 82.8778 1.3445 83.0425C1.25657 83.2072 1.17203 83.3743 1.09236 83.5434C1.0122 83.712 0.936407 83.883 0.86499 84.0559C0.793088 84.2284 0.726043 84.4028 0.662886 84.5787C0.599728 84.755 0.541429 84.9324 0.487016 85.1112C0.432604 85.2899 0.382564 85.4702 0.337381 85.6514C0.291714 85.8331 0.250904 86.0153 0.214467 86.1984C0.17803 86.3821 0.145965 86.5662 0.118273 86.7513C0.0910669 86.9359 0.0682331 87.1215 0.0497716 87.3076C0.0313102 87.4937 0.017707 87.6802 0.00847622 87.8668C-0.000754537 88.0533 -0.00512695 88.2404 -0.00512695 88.4274C-0.00512695 88.6145 -0.000754537 88.801 0.00847622 88.9876C0.017707 89.1746 0.0313102 89.3612 0.0497716 89.5468C0.0682331 89.7328 0.0910669 89.9184 0.118273 90.1035C0.145965 90.2886 0.17803 90.4727 0.214467 90.6559C0.250904 90.8391 0.291714 91.0217 0.337381 91.2029C0.382564 91.3842 0.432604 91.5644 0.487016 91.7432C0.541429 91.9225 0.599728 92.0998 0.662886 92.2757C0.726043 92.4515 0.793088 92.6259 0.86499 92.7989C0.936407 92.9714 1.0122 93.1424 1.09236 93.3114C1.17203 93.4805 1.25657 93.6471 1.3445 93.8118C1.43292 93.977 1.52474 94.1393 1.62094 94.2996C1.71713 94.4599 1.81721 94.6178 1.92118 94.7733C2.02515 94.9288 2.133 95.0818 2.24425 95.2319C2.35599 95.382 2.47065 95.5292 2.58968 95.6735C2.70822 95.8178 2.83016 95.9597 2.95599 96.0981C3.08182 96.2366 3.21057 96.3717 3.34271 96.5038L80.7666 173.917C80.8988 174.049 81.0338 174.177 81.1723 174.303C81.3107 174.429 81.4521 174.551 81.5969 174.669C81.7412 174.788 81.8884 174.903 82.0385 175.014C82.1886 175.125 82.3412 175.233 82.4967 175.337C82.6521 175.441 82.81 175.541 82.9698 175.637C83.1302 175.733 83.2929 175.825 83.4576 175.913C83.6223 176.001 83.7894 176.085 83.9585 176.165C84.1271 176.245 84.2981 176.321 84.4706 176.392C84.643 176.464 84.8174 176.531 84.9933 176.594C85.1697 176.657 85.347 176.716 85.5258 176.77C85.7046 176.824 85.8843 176.874 86.066 176.919C86.2472 176.965 86.4294 177.006 86.6126 177.042C86.7957 177.079 86.9799 177.111 87.165 177.138C87.3496 177.166 87.5352 177.189 87.7212 177.207C87.9068 177.225 88.0934 177.239 88.2799 177.248C88.4665 177.257 88.6535 177.262 88.8401 177.262C89.0271 177.262 89.2142 177.257 89.4007 177.248C89.5873 177.239 89.7734 177.225 89.9594 177.207C90.1455 177.189 90.3311 177.166 90.5157 177.138C90.7008 177.111 90.885 177.079 91.0681 177.042C91.2513 177.006 91.4334 176.965 91.6147 176.919C91.7964 176.874 91.9761 176.824 92.1549 176.77C92.3337 176.716 92.511 176.657 92.6874 176.594C92.8632 176.531 93.0372 176.464 93.2101 176.392C93.3826 176.321 93.5536 176.245 93.7222 176.165C93.8913 176.085 94.0584 176.001 94.2231 175.913C94.3878 175.825 94.5505 175.733 94.7104 175.637C94.8707 175.541 95.0286 175.441 95.184 175.337C95.3395 175.233 95.4921 175.125 95.6422 175.014C95.7923 174.903 95.9395 174.788 96.0838 174.669C96.2286 174.551 96.3699 174.429 96.5084 174.303C96.6469 174.177 96.7819 174.049 96.9141 173.917L173.977 96.9746C174.11 96.8429 174.239 96.7074 174.365 96.5689C174.49 96.4305 174.612 96.2891 174.731 96.1448C174.85 96 174.965 95.8528 175.076 95.7027C175.188 95.5526 175.295 95.4 175.399 95.2445C175.503 95.0891 175.603 94.9312 175.699 94.7709C175.795 94.6105 175.888 94.4478 175.976 94.2831C176.064 94.1184 176.148 93.9513 176.228 93.7822C176.308 93.6131 176.384 93.4426 176.456 93.2697C176.527 93.0972 176.595 92.9228 176.657 92.7469C176.72 92.5706 176.779 92.3932 176.834 92.2144C176.888 92.0357 176.938 91.8554 176.983 91.6742C177.028 91.4925 177.07 91.3103 177.106 91.1272C177.143 90.9435 177.175 90.7594 177.202 90.5743C177.23 90.3897 177.252 90.2041 177.271 90.018C177.289 89.8319 177.303 89.6454 177.312 89.4588C177.321 89.2723 177.326 89.0852 177.326 88.8982C177.326 88.7111 177.321 88.5246 177.312 88.3375C177.303 88.151 177.289 87.9644 177.271 87.7784C177.252 87.5923 177.23 87.4072 177.202 87.2221C177.175 87.037 177.143 86.8528 177.106 86.6697C177.07 86.4861 177.028 86.3039 176.983 86.1227C176.938 85.9414 176.888 85.7612 176.834 85.5824C176.779 85.4031 176.72 85.2258 176.657 85.0499C176.595 84.8741 176.527 84.6997 176.456 84.5267C176.384 84.3542 176.308 84.1832 176.228 84.0142C176.148 83.8451 176.064 83.6785 175.976 83.5133C175.888 83.3486 175.795 83.1858 175.699 83.0255C175.603 82.8652 175.503 82.7078 175.399 82.5523C175.295 82.3968 175.188 82.2438 175.076 82.0937C174.965 81.9436 174.85 81.7964 174.731 81.6521C174.612 81.5078 174.49 81.3659 174.365 81.2275C174.239 81.089 174.11 80.9539 173.977 80.8218" fill="#57595B"/>
</g>
</svg>
