<svg width="187" height="187" viewBox="0 0 187 187" fill="none" xmlns="http://www.w3.org/2000/svg">
<path d="M26.2716 110.117C26.2716 110.117 23.843 111.596 27.9609 112.019C32.9241 112.652 35.5631 112.546 41.0554 111.492C42.1616 112.169 43.3232 112.732 44.5402 113.182C32.1851 118.464 16.5541 112.865 26.2702 110.118L26.2716 110.117ZM24.6878 103.249C24.6878 103.249 22.0474 105.257 26.1662 105.679C31.5526 106.206 35.7754 106.311 43.0633 104.835C43.4175 105.195 43.809 105.509 44.2371 105.776C44.6651 106.044 45.1184 106.258 45.5969 106.419C30.7077 110.857 14.0215 106.841 24.6864 103.25L24.6878 103.249ZM53.8336 115.293C53.8336 115.293 55.6292 116.772 51.8267 117.935C44.7511 120.048 22.1513 120.682 15.8161 117.935C13.5988 116.986 17.8231 115.611 19.196 115.4C20.569 115.084 21.3079 115.084 21.3079 115.084C18.8798 113.394 5.15029 118.571 14.3247 120.049C39.5634 124.17 60.3675 118.254 53.82 115.295L53.8336 115.293ZM27.4337 96.065C27.4337 96.065 15.923 98.8119 23.3149 99.7627C26.4825 100.184 32.7132 100.079 38.5198 99.6568C43.2727 99.2351 48.0241 98.3888 48.0241 98.3888C48.0241 98.3888 46.3349 99.1272 45.1728 99.8681C33.4512 102.931 10.9569 101.558 17.3975 98.3888C22.8893 95.7473 27.4299 96.065 27.4299 96.065H27.4337ZM48.028 107.581C59.855 101.451 54.3656 95.5365 50.563 96.2759C49.6142 96.4867 49.1901 96.6976 49.1901 96.6976C49.1901 96.6976 49.5063 96.065 50.2443 95.8542C57.7416 93.2123 63.6575 103.777 47.8157 107.898C47.8157 107.898 47.9211 107.793 48.0265 107.582L48.028 107.581ZM28.5958 124.273C40.0011 125.011 57.4253 123.851 57.847 118.462C57.847 118.462 57.0036 120.576 48.4482 122.16C38.7321 123.956 26.7074 123.744 19.6187 122.582C19.6187 122.582 21.0971 123.85 28.5944 124.272L28.5958 124.273Z" fill="#57595B"/>
<path d="M40.8447 61.2021C40.8447 61.2021 47.3932 67.859 34.612 77.8942C24.3688 86.0274 32.2893 90.6783 34.612 95.9602C28.5931 90.5728 24.2634 85.8181 27.2338 81.381C31.5528 74.832 43.4852 71.662 40.8447 61.2021ZM37.4648 91.5231C40.527 95.0094 36.6214 98.1799 36.6214 98.1799C36.6214 98.1799 44.435 94.1646 40.8457 89.1989C37.5717 84.4446 35.0376 82.1204 48.7647 74.198C48.7647 74.198 27.1162 79.5868 37.4648 91.5246V91.5231Z" fill="#57595B"/>
<mask id="mask0_303_3" style="mask-type:luminance" maskUnits="userSpaceOnUse" x="73" y="67" width="109" height="59">
<path d="M73.0068 67.7812H181.447V125.365H73.0068V67.7812Z" fill="white"/>
</mask>
<g mask="url(#mask0_303_3)">
<path d="M118.831 113.378V89.4049C118.831 83.2884 115.407 79.1311 106.85 79.1311C101.961 79.1311 97.803 80.3545 94.1346 81.8202L95.3574 86.2228C98.0455 85.2448 101.471 84.2654 105.138 84.2654C109.784 84.2654 111.984 86.2228 111.984 90.1366V93.3158H109.539C97.803 93.3158 92.4099 97.7189 92.4099 104.813C92.4099 110.685 96.0779 114.109 102.679 114.109C106.837 114.109 110.014 112.151 112.949 109.706L113.436 113.376H118.816L118.831 113.378ZM111.984 105.55C109.539 107.751 106.85 108.975 104.404 108.975C101.226 108.975 99.2693 107.017 99.2693 103.593C99.2693 100.168 101.226 97.7213 109.05 97.7213H111.984V105.55ZM141.815 113.378H133.257L122.996 79.8652H130.331L136.688 100.413L138.155 106.529C141.334 97.7242 143.778 88.6718 144.756 79.8667H152.091C150.134 90.8736 146.713 102.859 141.822 113.379L141.815 113.378ZM181.425 113.378V89.4049C181.425 83.2884 178.002 79.1311 169.444 79.1311C164.556 79.1311 160.398 80.3545 156.729 81.8202L157.707 86.2228C160.641 85.2448 164.065 84.2654 167.732 84.2654C172.377 84.2654 174.578 86.2228 174.578 90.1366V93.3158H172.132C160.396 93.3158 155.003 97.7189 155.003 104.813C155.003 110.685 158.427 114.109 165.027 114.109C169.429 114.109 172.608 112.151 175.542 109.706L176.03 113.376H181.41L181.425 113.378ZM174.579 105.55C172.134 107.751 169.444 108.975 166.999 108.975C163.821 108.975 161.864 107.017 161.864 103.593C161.864 100.168 163.819 97.7213 171.644 97.7213H174.579V105.55ZM84.8533 119.002C82.8969 121.938 79.9649 124.139 76.2955 125.362L73.1162 121.447C75.5614 119.98 78.007 117.779 78.9845 115.821C79.9625 114.108 80.2073 111.663 80.2073 106.036V67.875H87.5424V105.546C87.5424 113.13 86.8088 116.065 84.8548 119L84.8533 119.002Z" fill="#57595B"/>
</g>
</svg>
