<svg width="187" height="187" viewBox="0 0 187 187" fill="none" xmlns="http://www.w3.org/2000/svg">
<mask id="mask0_303_25" style="mask-type:luminance" maskUnits="userSpaceOnUse" x="2" y="45" width="182" height="97">
<path d="M2.54407 45.5215H183.971V141.039H2.54407V45.5215Z" fill="white"/>
</mask>
<g mask="url(#mask0_303_25)">
<mask id="mask1_303_25" style="mask-type:luminance" maskUnits="userSpaceOnUse" x="2" y="45" width="182" height="97">
<path d="M183.973 93.2903C183.973 94.071 183.936 94.8517 183.863 95.6315C183.791 96.4117 183.682 97.19 183.536 97.9673C183.391 98.7446 183.209 99.5195 182.991 100.292C182.773 101.064 182.52 101.834 182.23 102.599C181.94 103.365 181.615 104.127 181.254 104.885C180.894 105.642 180.498 106.394 180.067 107.142C179.636 107.889 179.17 108.63 178.67 109.366C178.17 110.101 177.636 110.829 177.068 111.551C176.5 112.272 175.898 112.986 175.263 113.692C174.629 114.398 173.961 115.095 173.262 115.784C172.562 116.472 171.83 117.152 171.067 117.822C170.303 118.492 169.51 119.151 168.685 119.8C167.86 120.449 167.006 121.088 166.121 121.715C165.237 122.342 164.323 122.958 163.382 123.562C162.44 124.165 161.471 124.756 160.474 125.335C159.476 125.914 158.453 126.479 157.403 127.031C156.353 127.583 155.279 128.122 154.179 128.646C153.079 129.171 151.955 129.681 150.807 130.176C149.66 130.671 148.49 131.152 147.297 131.617C146.105 132.082 144.891 132.532 143.657 132.965C142.423 133.399 141.169 133.817 139.896 134.218C138.622 134.62 137.33 135.005 136.021 135.373C134.712 135.741 133.386 136.092 132.044 136.426C130.702 136.76 129.345 137.076 127.974 137.375C126.602 137.674 125.218 137.955 123.819 138.218C122.422 138.481 121.012 138.726 119.592 138.952C118.171 139.179 116.741 139.388 115.301 139.577C113.861 139.767 112.413 139.938 110.957 140.09C109.5 140.243 108.038 140.376 106.57 140.491C105.101 140.605 103.628 140.701 102.151 140.777C100.673 140.854 99.1929 140.912 97.7102 140.949C96.2274 140.988 94.7437 141.007 93.259 141.007C91.7743 141.007 90.2906 140.988 88.8078 140.949C87.3251 140.912 85.8453 140.854 84.3679 140.777C82.89 140.701 81.4174 140.605 79.9488 140.491C78.4801 140.376 77.0178 140.243 75.5618 140.09C74.1057 139.938 72.6575 139.767 71.2175 139.577C69.7775 139.388 68.3472 139.179 66.9262 138.952C65.5056 138.726 64.0962 138.481 62.6985 138.218C61.3008 137.955 59.9162 137.674 58.5447 137.375C57.1727 137.076 55.8163 136.76 54.4739 136.426C53.1321 136.092 51.8063 135.741 50.4969 135.373C49.1876 135.005 47.8963 134.62 46.623 134.218C45.3496 133.817 44.0957 133.399 42.8612 132.965C41.6267 132.532 40.4136 132.082 39.2209 131.617C38.0287 131.152 36.8588 130.671 35.7108 130.176C34.5633 129.681 33.4395 129.171 32.3396 128.646C31.2397 128.122 30.1646 127.583 29.1147 127.031C28.0653 126.479 27.0417 125.914 26.0448 125.335C25.0478 124.756 24.0781 124.165 23.1366 123.562C22.1946 122.958 21.2817 122.342 20.397 121.715C19.5128 121.088 18.6582 120.449 17.8333 119.8C17.0089 119.151 16.2145 118.492 15.4513 117.822C14.6881 117.152 13.9564 116.472 13.2568 115.784C12.5567 115.095 11.8897 114.398 11.2547 113.692C10.6202 112.986 10.0188 112.272 9.45084 111.551C8.88242 110.829 8.3485 110.101 7.8481 109.366C7.34818 108.63 6.88227 107.889 6.45134 107.142C6.02041 106.394 5.62495 105.642 5.26398 104.885C4.90349 104.127 4.57799 103.365 4.28844 102.599C3.99888 101.834 3.74528 101.064 3.52715 100.292C3.30949 99.5195 3.1278 98.7446 2.98205 97.9673C2.83678 97.19 2.72747 96.4117 2.6546 95.6315C2.58173 94.8517 2.54529 94.071 2.54529 93.2903C2.54529 92.5095 2.58173 91.7288 2.6546 90.9491C2.72747 90.1688 2.83678 89.3905 2.98205 88.6132C3.1278 87.8359 3.30949 87.0615 3.52715 86.2885C3.74528 85.516 3.99888 84.747 4.28844 83.9813C4.57799 83.2152 4.90349 82.4534 5.26398 81.696C5.62495 80.9386 6.02041 80.186 6.45134 79.4388C6.88227 78.6916 7.34818 77.9502 7.8481 77.2147C8.3485 76.4796 8.88242 75.7514 9.45084 75.0299C10.0188 74.3085 10.6202 73.5948 11.2547 72.8889C11.8897 72.1825 12.5567 71.4853 13.2568 70.7969C13.9564 70.108 14.6881 69.4288 15.4513 68.7589C16.2145 68.0889 17.0089 67.4297 17.8333 66.7801C18.6582 66.131 19.5128 65.4927 20.397 64.8655C21.2817 64.2383 22.1946 63.6227 23.1366 63.0188C24.0781 62.4154 25.0478 61.8242 26.0448 61.2456C27.0417 60.6669 28.0653 60.1014 29.1147 59.5495C30.1646 58.9971 31.2397 58.4588 32.3396 57.9346C33.4395 57.4099 34.5633 56.8998 35.7108 56.4048C36.8588 55.9092 38.0287 55.4287 39.2209 54.9638C40.4136 54.4984 41.6267 54.049 42.8612 53.6151C44.0957 53.1813 45.3496 52.7635 46.623 52.3622C47.8963 51.9609 49.1876 51.5756 50.4969 51.2079C51.8063 50.8396 53.1321 50.4888 54.4739 50.1546C55.8163 49.8208 57.1727 49.5046 58.5447 49.2058C59.9162 48.907 61.3008 48.6257 62.6985 48.3629C64.0962 48.0995 65.5056 47.8547 66.9262 47.6283C68.3472 47.4014 69.7775 47.193 71.2175 47.0035C72.6575 46.8136 74.1057 46.6425 75.5618 46.4905C77.0178 46.3379 78.4801 46.2043 79.9488 46.0897C81.4174 45.9755 82.89 45.8798 84.3679 45.803C85.8453 45.7268 87.3251 45.6694 88.8078 45.6311C90.2906 45.5927 91.7743 45.5732 93.259 45.5732C94.7437 45.5732 96.2274 45.5927 97.7102 45.6311C99.1929 45.6694 100.673 45.7268 102.151 45.803C103.628 45.8798 105.101 45.9755 106.57 46.0897C108.038 46.2043 109.5 46.3379 110.957 46.4905C112.413 46.6425 113.861 46.8136 115.301 47.0035C116.741 47.193 118.171 47.4014 119.592 47.6283C121.012 47.8547 122.422 48.0995 123.819 48.3629C125.218 48.6257 126.602 48.907 127.974 49.2058C129.345 49.5046 130.702 49.8208 132.044 50.1546C133.386 50.4888 134.712 50.8396 136.021 51.2079C137.33 51.5756 138.622 51.9609 139.896 52.3622C141.169 52.7635 142.423 53.1813 143.657 53.6151C144.891 54.049 146.105 54.4984 147.297 54.9638C148.49 55.4287 149.66 55.9092 150.807 56.4048C151.955 56.8998 153.079 57.4099 154.179 57.9346C155.279 58.4588 156.353 58.9971 157.403 59.5495C158.453 60.1014 159.476 60.6669 160.474 61.2456C161.471 61.8242 162.44 62.4154 163.382 63.0188C164.323 63.6227 165.237 64.2383 166.121 64.8655C167.006 65.4927 167.86 66.131 168.685 66.7801C169.51 67.4297 170.303 68.0889 171.067 68.7589C171.83 69.4288 172.562 70.108 173.262 70.7969C173.961 71.4853 174.629 72.1825 175.263 72.8889C175.898 73.5948 176.5 74.3085 177.068 75.0299C177.636 75.7514 178.17 76.4796 178.67 77.2147C179.17 77.9502 179.636 78.6916 180.067 79.4388C180.498 80.186 180.894 80.9386 181.254 81.696C181.615 82.4534 181.94 83.2152 182.23 83.9813C182.52 84.747 182.773 85.516 182.991 86.2885C183.209 87.0615 183.391 87.8359 183.536 88.6132C183.682 89.3905 183.791 90.1688 183.863 90.9491C183.936 91.7288 183.973 92.5095 183.973 93.2903Z" fill="white"/>
</mask>
<g mask="url(#mask1_303_25)">
<path d="M2.54529 45.5732V141.007H183.973V45.5732H2.54529Z" fill="url(#paint0_radial_303_25)"/>
</g>
</g>
<path d="M180.427 93.2891C180.427 94.012 180.392 94.7344 180.322 95.4564C180.252 96.1783 180.147 96.8993 180.007 97.6188C179.867 98.3383 179.693 99.0554 179.483 99.7705C179.274 100.486 179.03 101.197 178.752 101.907C178.474 102.616 178.161 103.321 177.814 104.022C177.468 104.723 177.088 105.42 176.673 106.112C176.259 106.803 175.812 107.489 175.331 108.17C174.851 108.851 174.337 109.525 173.791 110.193C173.246 110.861 172.667 111.521 172.058 112.175C171.448 112.829 170.806 113.474 170.134 114.112C169.461 114.749 168.758 115.378 168.025 115.998C167.292 116.618 166.529 117.229 165.736 117.83C164.943 118.431 164.122 119.021 163.273 119.602C162.422 120.183 161.545 120.752 160.64 121.311C159.735 121.87 158.803 122.417 157.845 122.953C156.887 123.489 155.904 124.012 154.895 124.523C153.886 125.035 152.853 125.533 151.797 126.018C150.74 126.504 149.66 126.976 148.557 127.435C147.454 127.893 146.33 128.338 145.184 128.768C144.038 129.199 142.872 129.615 141.686 130.017C140.5 130.418 139.295 130.805 138.071 131.176C136.847 131.548 135.607 131.904 134.348 132.245C133.09 132.586 131.816 132.911 130.527 133.22C129.237 133.529 127.933 133.822 126.615 134.099C125.297 134.375 123.967 134.635 122.623 134.879C121.28 135.122 119.926 135.349 118.561 135.559C117.196 135.769 115.821 135.961 114.437 136.137C113.054 136.313 111.662 136.471 110.263 136.612C108.864 136.753 107.458 136.877 106.047 136.983C104.636 137.089 103.22 137.177 101.801 137.248C100.381 137.319 98.9587 137.372 97.5337 137.408C96.1088 137.443 94.6834 137.461 93.2565 137.461C91.8301 137.461 90.4042 137.443 88.9793 137.408C87.5544 137.372 86.1323 137.319 84.7123 137.248C83.2927 137.177 81.8775 137.089 80.4661 136.983C79.0548 136.877 77.6498 136.753 76.2506 136.612C74.8514 136.471 73.46 136.313 72.0759 136.137C70.6923 135.961 69.3179 135.769 67.9527 135.559C66.5875 135.349 65.233 135.122 63.8897 134.879C62.5469 134.635 61.2162 134.375 59.8981 134.099C58.5801 133.822 57.2761 133.529 55.9867 133.22C54.6969 132.911 53.423 132.586 52.1647 132.245C50.9069 131.904 49.6656 131.548 48.4423 131.176C47.2185 130.805 46.0137 130.418 44.8273 130.017C43.6414 129.615 42.4754 129.199 41.3293 128.768C40.1837 128.338 39.0591 127.893 37.9562 127.435C36.8539 126.976 35.7739 126.504 34.7167 126.018C33.6596 125.533 32.6267 125.035 31.6181 124.523C30.6091 124.012 29.6257 123.489 28.6677 122.953C27.7096 122.417 26.7783 121.87 25.8732 121.311C24.9681 120.752 24.0907 120.183 23.241 119.602C22.3913 119.021 21.5697 118.431 20.7774 117.83C19.9845 117.229 19.2217 116.618 18.4881 115.998C17.755 115.378 17.052 114.749 16.3792 114.112C15.7068 113.474 15.0655 112.829 14.4558 112.175C13.8456 111.521 13.2679 110.861 12.7219 110.193C12.1758 109.525 11.6628 108.851 11.1823 108.17C10.7013 107.489 10.2539 106.803 9.83993 106.112C9.426 105.42 9.0456 104.723 8.69872 104.022C8.35233 103.321 8.03994 102.616 7.76156 101.907C7.48318 101.197 7.23929 100.486 7.0299 99.7705C6.82051 99.0554 6.6461 98.3383 6.50618 97.6188C6.36626 96.8993 6.26132 96.1783 6.19136 95.4564C6.12141 94.7344 6.08643 94.012 6.08643 93.2891C6.08643 92.5662 6.12141 91.8438 6.19136 91.1218C6.26132 90.3999 6.36626 89.6789 6.50618 88.9594C6.6461 88.2399 6.82051 87.5228 7.0299 86.8077C7.23929 86.0925 7.48318 85.3808 7.76156 84.6715C8.03994 83.9627 8.35233 83.2573 8.69872 82.5562C9.0456 81.8552 9.426 81.1585 9.83993 80.4667C10.2539 79.7748 10.7013 79.0889 11.1823 78.4082C11.6628 77.7276 12.1758 77.0532 12.7219 76.3852C13.2679 75.7172 13.8456 75.057 14.4558 74.4031C15.0655 73.7496 15.7068 73.1044 16.3792 72.4665C17.052 71.8291 17.755 71.2005 18.4881 70.5801C19.2217 69.9602 19.9845 69.3495 20.7774 68.7485C21.5697 68.1475 22.3913 67.5568 23.241 66.9762C24.0907 66.3952 24.9681 65.8258 25.8732 65.2671C26.7783 64.7079 27.7096 64.1608 28.6677 63.625C29.6257 63.0896 30.6091 62.5664 31.6181 62.0548C32.6267 61.5437 33.6596 61.0457 34.7167 60.5599C35.7739 60.0745 36.8539 59.6023 37.9562 59.1437C39.0591 58.6851 40.1837 58.2405 41.3293 57.8101C42.4754 57.3792 43.6414 56.9633 44.8273 56.5615C46.0137 56.1602 47.2185 55.7735 48.4423 55.4019C49.6656 55.0302 50.9069 54.6741 52.1647 54.333C53.423 53.9925 54.6969 53.6674 55.9867 53.3585C57.2761 53.0495 58.5801 52.7565 59.8981 52.4796C61.2162 52.2032 62.5469 51.9428 63.8897 51.6994C65.233 51.456 66.5875 51.2291 67.9527 51.0192C69.3179 50.8093 70.6923 50.6169 72.0759 50.4411C73.46 50.2657 74.8514 50.1073 76.2506 49.9659C77.6498 49.825 79.0548 49.7016 80.4661 49.5952C81.8775 49.4893 83.2927 49.4009 84.7123 49.33C86.1323 49.259 87.5544 49.2061 88.9793 49.1706C90.4042 49.1352 91.8301 49.1172 93.2565 49.1172C94.6834 49.1172 96.1088 49.1352 97.5337 49.1706C98.9587 49.2061 100.381 49.259 101.801 49.33C103.22 49.4009 104.636 49.4893 106.047 49.5952C107.458 49.7016 108.864 49.825 110.263 49.9659C111.662 50.1073 113.054 50.2657 114.437 50.4411C115.821 50.6169 117.196 50.8093 118.561 51.0192C119.926 51.2291 121.28 51.456 122.623 51.6994C123.967 51.9428 125.297 52.2032 126.615 52.4796C127.933 52.7565 129.237 53.0495 130.527 53.3585C131.816 53.6674 133.09 53.9925 134.348 54.333C135.607 54.6741 136.847 55.0302 138.071 55.4019C139.295 55.7735 140.5 56.1602 141.686 56.5615C142.872 56.9633 144.038 57.3792 145.184 57.8101C146.33 58.2405 147.454 58.6851 148.557 59.1437C149.66 59.6023 150.74 60.0745 151.797 60.5599C152.853 61.0457 153.886 61.5437 154.895 62.0548C155.904 62.5664 156.887 63.0896 157.845 63.625C158.803 64.1608 159.735 64.7079 160.64 65.2671C161.545 65.8258 162.422 66.3952 163.273 66.9762C164.122 67.5568 164.943 68.1475 165.736 68.7485C166.529 69.3495 167.292 69.9602 168.025 70.5801C168.758 71.2005 169.461 71.8291 170.134 72.4665C170.806 73.1044 171.448 73.7496 172.058 74.4031C172.667 75.057 173.246 75.7172 173.791 76.3852C174.337 77.0532 174.851 77.7276 175.331 78.4082C175.812 79.0889 176.259 79.7748 176.673 80.4667C177.088 81.1585 177.468 81.8552 177.814 82.5562C178.161 83.2573 178.474 83.9627 178.752 84.6715C179.03 85.3808 179.274 86.0925 179.483 86.8077C179.693 87.5228 179.867 88.2399 180.007 88.9594C180.147 89.6789 180.252 90.3999 180.322 91.1218C180.392 91.8438 180.427 92.5662 180.427 93.2891Z" fill="#57595B"/>
<path d="M110.903 107.61L115.226 85.347C116.219 80.3129 115.368 76.555 112.817 74.2152C110.336 71.9464 106.084 70.812 99.8476 70.812H92.3353L94.4612 59.7512C94.5322 59.3261 94.4612 58.9005 94.178 58.5458C93.8943 58.1917 93.5401 58.0498 93.115 58.0498H82.7678C82.059 58.0498 81.4921 58.5458 81.3502 59.1842L76.7436 82.7945C76.3185 80.1001 75.3264 77.8312 73.6255 75.988C70.578 72.5139 65.83 70.7411 59.3806 70.7411H39.466C38.7572 70.7411 38.1903 71.2376 38.0489 71.8755L28.7647 119.805C28.6938 120.23 28.7647 120.656 29.0484 121.011C29.3317 121.365 29.6858 121.507 30.1114 121.507H40.529C41.2379 121.507 41.8048 121.011 41.9467 120.372L44.2145 108.815H51.9392C55.9788 108.815 59.4515 108.39 62.0735 107.539C64.8374 106.617 67.318 105.128 69.515 103.072C71.2868 101.441 72.7749 99.5983 73.9088 97.6127L72.0665 107.184C71.9956 107.61 72.0665 108.036 72.3498 108.39C72.6335 108.744 72.9877 108.886 73.4128 108.886H83.7599C84.4687 108.886 85.0357 108.39 85.1776 107.752L90.2802 81.5182H97.367C100.415 81.5182 101.265 82.0852 101.548 82.3689C101.761 82.5817 102.186 83.4324 101.69 86.0558L97.5798 107.255C97.5088 107.681 97.5798 108.106 97.863 108.461C98.1467 108.815 98.5009 108.957 98.926 108.957H109.557C110.194 108.744 110.761 108.248 110.903 107.61ZM62.9952 89.1753C62.3573 92.5081 61.1524 94.9188 59.3806 96.2655C57.6088 97.6127 54.7031 98.322 50.8762 98.322H46.2696L49.6004 81.1635H55.5537C59.9476 81.1635 61.7194 82.0852 62.4282 82.8654C63.3493 83.9998 63.5621 86.1977 62.9952 89.1753Z" fill="white"/>
<path d="M155.126 75.9901C152.079 72.5159 147.33 70.7432 140.881 70.7432H120.825C120.116 70.7432 119.549 71.2397 119.408 71.8776L110.124 119.736C110.053 120.162 110.124 120.587 110.407 120.942C110.691 121.296 111.045 121.438 111.47 121.438H121.888C122.597 121.438 123.164 120.942 123.305 120.303L125.573 108.747H133.298C137.337 108.747 140.81 108.321 143.433 107.47C146.197 106.549 148.677 105.06 150.874 103.004C152.716 101.302 154.276 99.3876 155.41 97.3315C156.544 95.275 157.394 93.0062 157.89 90.5246C159.095 84.3565 158.174 79.5352 155.126 75.9901ZM144.283 89.1774C143.645 92.5102 142.441 94.9209 140.669 96.2676C138.897 97.6148 135.991 98.3241 132.164 98.3241H127.558L130.889 81.1656H136.841C141.236 81.1656 143.008 82.0872 143.716 82.8675C144.708 84.0019 144.921 86.1998 144.283 89.1774Z" fill="white"/>
<path d="M55.5535 79.7454C59.5222 79.7454 62.1442 80.4547 63.4909 81.9437C64.8372 83.4323 65.1209 85.9139 64.4121 89.459C63.7033 93.146 62.2861 95.8404 60.231 97.4004C58.1755 98.9599 55.0575 99.7401 50.876 99.7401H44.5685L48.4662 79.7454H55.5535ZM30.1821 120.018H40.5997L43.0804 107.326H52.0099C55.9786 107.326 59.1676 106.901 61.7191 106.05C64.2702 105.199 66.5381 103.852 68.6645 101.867C70.4363 100.236 71.8535 98.4638 72.9165 96.5492C73.9795 94.635 74.7592 92.5081 75.1843 90.1683C76.3182 84.4958 75.4681 80.1 72.7042 76.9096C69.9398 73.7192 65.546 72.1592 59.5222 72.1592H39.4658L30.1821 120.018Z" fill="#000004" fill-opacity="0.52"/>
<path d="M82.8389 59.4688H93.1855L90.7054 72.16H99.9186C105.73 72.16 109.698 73.1526 111.895 75.2086C114.093 77.2651 114.73 80.5265 113.88 85.0641L109.557 107.327H99.0679L103.179 86.1276C103.675 83.7169 103.462 82.086 102.682 81.2353C101.903 80.3846 100.131 79.8881 97.5089 79.8881H89.2168L83.9018 107.327H73.5547L82.8389 59.4688Z" fill="#000004" fill-opacity="0.52"/>
<path d="M136.841 79.7454C140.81 79.7454 143.433 80.4547 144.779 81.9437C146.126 83.4323 146.409 85.9139 145.701 89.459C144.992 93.146 143.575 95.8404 141.519 97.4004C139.464 98.9599 136.345 99.7401 132.164 99.7401H125.857L129.755 79.7454H136.841ZM111.47 120.018H121.888L124.368 107.326H133.298C137.267 107.326 140.456 106.901 143.008 106.05C145.559 105.199 147.827 103.852 149.952 101.867C151.724 100.236 153.142 98.4638 154.205 96.5492C155.268 94.635 156.048 92.5081 156.473 90.1683C157.607 84.4958 156.756 80.1 153.992 76.9096C151.228 73.7192 146.834 72.1592 140.81 72.1592H120.754L111.47 120.018Z" fill="#000004" fill-opacity="0.52"/>
<defs>
<radialGradient id="paint0_radial_303_25" cx="0" cy="0" r="1" gradientUnits="userSpaceOnUse" gradientTransform="translate(57.01 62.3544) scale(119.13 119.183)">
<stop stop-color="#FEFEFF"/>
<stop offset="0.00390625" stop-color="#FDFDFE"/>
<stop offset="0.0078125" stop-color="#FCFCFD"/>
<stop offset="0.0117188" stop-color="#FAFBFC"/>
<stop offset="0.015625" stop-color="#F9FAFB"/>
<stop offset="0.0195312" stop-color="#F7F9FB"/>
<stop offset="0.0234375" stop-color="#F6F7FA"/>
<stop offset="0.0273438" stop-color="#F5F6F9"/>
<stop offset="0.03125" stop-color="#F3F5F8"/>
<stop offset="0.0351562" stop-color="#F2F4F7"/>
<stop offset="0.0390625" stop-color="#F0F3F6"/>
<stop offset="0.0429688" stop-color="#EFF2F6"/>
<stop offset="0.046875" stop-color="#EEF1F5"/>
<stop offset="0.0507812" stop-color="#ECEFF4"/>
<stop offset="0.0546875" stop-color="#EBEEF3"/>
<stop offset="0.0585938" stop-color="#E9EDF2"/>
<stop offset="0.0625" stop-color="#E8ECF2"/>
<stop offset="0.0664062" stop-color="#E7EBF1"/>
<stop offset="0.0703125" stop-color="#E5EAF0"/>
<stop offset="0.0742188" stop-color="#E4E8EF"/>
<stop offset="0.078125" stop-color="#E2E7EE"/>
<stop offset="0.0820312" stop-color="#E1E6EE"/>
<stop offset="0.0859375" stop-color="#E0E5ED"/>
<stop offset="0.0898438" stop-color="#DEE4EC"/>
<stop offset="0.09375" stop-color="#DDE3EB"/>
<stop offset="0.0976562" stop-color="#DBE2EA"/>
<stop offset="0.101562" stop-color="#DAE0E9"/>
<stop offset="0.105469" stop-color="#D9DFE9"/>
<stop offset="0.109375" stop-color="#D7DEE8"/>
<stop offset="0.113281" stop-color="#D6DDE7"/>
<stop offset="0.117188" stop-color="#D4DCE6"/>
<stop offset="0.121094" stop-color="#D3DBE5"/>
<stop offset="0.125" stop-color="#D2D9E5"/>
<stop offset="0.128906" stop-color="#D0D8E4"/>
<stop offset="0.132812" stop-color="#CFD7E3"/>
<stop offset="0.136719" stop-color="#CDD6E2"/>
<stop offset="0.140625" stop-color="#CCD5E1"/>
<stop offset="0.144531" stop-color="#CBD4E1"/>
<stop offset="0.148438" stop-color="#C9D3E0"/>
<stop offset="0.152344" stop-color="#C8D1DF"/>
<stop offset="0.15625" stop-color="#C6D0DE"/>
<stop offset="0.160156" stop-color="#C5CFDD"/>
<stop offset="0.164062" stop-color="#C4CEDC"/>
<stop offset="0.167969" stop-color="#C2CDDC"/>
<stop offset="0.171875" stop-color="#C1CCDB"/>
<stop offset="0.175781" stop-color="#BFCADA"/>
<stop offset="0.179688" stop-color="#BEC9D9"/>
<stop offset="0.183594" stop-color="#BDC8D8"/>
<stop offset="0.1875" stop-color="#BBC7D8"/>
<stop offset="0.191406" stop-color="#BAC6D7"/>
<stop offset="0.195312" stop-color="#B8C5D6"/>
<stop offset="0.199219" stop-color="#B7C3D5"/>
<stop offset="0.203125" stop-color="#B6C2D4"/>
<stop offset="0.207031" stop-color="#B4C1D4"/>
<stop offset="0.210938" stop-color="#B3C0D3"/>
<stop offset="0.214844" stop-color="#B1BFD2"/>
<stop offset="0.21875" stop-color="#B0BED1"/>
<stop offset="0.222656" stop-color="#AFBDD0"/>
<stop offset="0.226562" stop-color="#ADBBCF"/>
<stop offset="0.230469" stop-color="#ACBACF"/>
<stop offset="0.234375" stop-color="#AAB9CE"/>
<stop offset="0.238281" stop-color="#A9B8CD"/>
<stop offset="0.242188" stop-color="#A8B7CC"/>
<stop offset="0.246094" stop-color="#A6B6CB"/>
<stop offset="0.25" stop-color="#A5B4CB"/>
<stop offset="0.253906" stop-color="#A3B3CA"/>
<stop offset="0.257812" stop-color="#A2B2C9"/>
<stop offset="0.261719" stop-color="#A1B1C8"/>
<stop offset="0.265625" stop-color="#9FB0C7"/>
<stop offset="0.269531" stop-color="#9EAFC7"/>
<stop offset="0.273438" stop-color="#9CAEC6"/>
<stop offset="0.277344" stop-color="#9BACC5"/>
<stop offset="0.28125" stop-color="#9AABC4"/>
<stop offset="0.285156" stop-color="#98AAC3"/>
<stop offset="0.289062" stop-color="#97A9C2"/>
<stop offset="0.292969" stop-color="#95A8C2"/>
<stop offset="0.296875" stop-color="#94A7C1"/>
<stop offset="0.300781" stop-color="#93A5C0"/>
<stop offset="0.304688" stop-color="#91A4BF"/>
<stop offset="0.308594" stop-color="#90A3BE"/>
<stop offset="0.3125" stop-color="#8EA2BE"/>
<stop offset="0.316406" stop-color="#8DA1BD"/>
<stop offset="0.320312" stop-color="#8CA0BC"/>
<stop offset="0.324219" stop-color="#8A9FBB"/>
<stop offset="0.328125" stop-color="#899DBA"/>
<stop offset="0.332031" stop-color="#879CB9"/>
<stop offset="0.335938" stop-color="#869BB9"/>
<stop offset="0.339844" stop-color="#859AB8"/>
<stop offset="0.34375" stop-color="#8399B7"/>
<stop offset="0.347656" stop-color="#8298B6"/>
<stop offset="0.351562" stop-color="#8096B5"/>
<stop offset="0.355469" stop-color="#7F95B5"/>
<stop offset="0.359375" stop-color="#7E94B4"/>
<stop offset="0.363281" stop-color="#7C93B3"/>
<stop offset="0.367188" stop-color="#7B92B2"/>
<stop offset="0.371094" stop-color="#7991B1"/>
<stop offset="0.375" stop-color="#788FB1"/>
<stop offset="0.378906" stop-color="#778EB0"/>
<stop offset="0.382812" stop-color="#758DAF"/>
<stop offset="0.386719" stop-color="#748CAE"/>
<stop offset="0.390625" stop-color="#728BAD"/>
<stop offset="0.394531" stop-color="#718AAC"/>
<stop offset="0.398438" stop-color="#7089AC"/>
<stop offset="0.402344" stop-color="#6E87AB"/>
<stop offset="0.40625" stop-color="#6D86AA"/>
<stop offset="0.410156" stop-color="#6B85A9"/>
<stop offset="0.414062" stop-color="#6A84A8"/>
<stop offset="0.417969" stop-color="#6983A8"/>
<stop offset="0.421875" stop-color="#6782A7"/>
<stop offset="0.425781" stop-color="#6680A6"/>
<stop offset="0.429688" stop-color="#647FA5"/>
<stop offset="0.433594" stop-color="#637EA4"/>
<stop offset="0.4375" stop-color="#627DA4"/>
<stop offset="0.441406" stop-color="#607CA3"/>
<stop offset="0.445312" stop-color="#5F7BA2"/>
<stop offset="0.449219" stop-color="#5D7AA1"/>
<stop offset="0.453125" stop-color="#5C78A0"/>
<stop offset="0.457031" stop-color="#5B779F"/>
<stop offset="0.460938" stop-color="#59769F"/>
<stop offset="0.464844" stop-color="#58759E"/>
<stop offset="0.46875" stop-color="#56749D"/>
<stop offset="0.472656" stop-color="#55739C"/>
<stop offset="0.476562" stop-color="#54719B"/>
<stop offset="0.480469" stop-color="#52709B"/>
<stop offset="0.484375" stop-color="#516F9A"/>
<stop offset="0.488281" stop-color="#4F6E99"/>
<stop offset="0.492188" stop-color="#4E6D98"/>
<stop offset="0.496094" stop-color="#4D6C97"/>
<stop offset="0.5" stop-color="#4C6B96"/>
<stop offset="0.503906" stop-color="#4C6A96"/>
<stop offset="0.507812" stop-color="#4B6A95"/>
<stop offset="0.511719" stop-color="#4B6994"/>
<stop offset="0.515625" stop-color="#4B6893"/>
<stop offset="0.519531" stop-color="#4A6892"/>
<stop offset="0.523438" stop-color="#4A6791"/>
<stop offset="0.527344" stop-color="#4A6790"/>
<stop offset="0.53125" stop-color="#49668F"/>
<stop offset="0.535156" stop-color="#49658E"/>
<stop offset="0.539062" stop-color="#49658D"/>
<stop offset="0.542969" stop-color="#48648C"/>
<stop offset="0.546875" stop-color="#48648B"/>
<stop offset="0.550781" stop-color="#48638A"/>
<stop offset="0.554688" stop-color="#476289"/>
<stop offset="0.558594" stop-color="#476289"/>
<stop offset="0.5625" stop-color="#476188"/>
<stop offset="0.566406" stop-color="#466187"/>
<stop offset="0.570312" stop-color="#466086"/>
<stop offset="0.574219" stop-color="#466085"/>
<stop offset="0.578125" stop-color="#455F84"/>
<stop offset="0.582031" stop-color="#455E83"/>
<stop offset="0.585938" stop-color="#455E82"/>
<stop offset="0.589844" stop-color="#445D81"/>
<stop offset="0.59375" stop-color="#445D80"/>
<stop offset="0.597656" stop-color="#445C7F"/>
<stop offset="0.601562" stop-color="#435B7E"/>
<stop offset="0.605469" stop-color="#435B7D"/>
<stop offset="0.609375" stop-color="#435A7C"/>
<stop offset="0.613281" stop-color="#435A7C"/>
<stop offset="0.617188" stop-color="#42597B"/>
<stop offset="0.621094" stop-color="#42587A"/>
<stop offset="0.625" stop-color="#425879"/>
<stop offset="0.628906" stop-color="#415778"/>
<stop offset="0.632812" stop-color="#415777"/>
<stop offset="0.636719" stop-color="#415676"/>
<stop offset="0.640625" stop-color="#405575"/>
<stop offset="0.644531" stop-color="#405574"/>
<stop offset="0.648438" stop-color="#405473"/>
<stop offset="0.652344" stop-color="#3F5472"/>
<stop offset="0.65625" stop-color="#3F5371"/>
<stop offset="0.660156" stop-color="#3F5270"/>
<stop offset="0.664062" stop-color="#3E526F"/>
<stop offset="0.667969" stop-color="#3E516E"/>
<stop offset="0.671875" stop-color="#3E516E"/>
<stop offset="0.675781" stop-color="#3D506D"/>
<stop offset="0.679688" stop-color="#3D4F6C"/>
<stop offset="0.683594" stop-color="#3D4F6B"/>
<stop offset="0.6875" stop-color="#3C4E6A"/>
<stop offset="0.691406" stop-color="#3C4E69"/>
<stop offset="0.695312" stop-color="#3C4D68"/>
<stop offset="0.699219" stop-color="#3B4D67"/>
<stop offset="0.703125" stop-color="#3B4C66"/>
<stop offset="0.707031" stop-color="#3B4B65"/>
<stop offset="0.710938" stop-color="#3B4B64"/>
<stop offset="0.714844" stop-color="#3A4A63"/>
<stop offset="0.71875" stop-color="#3A4A62"/>
<stop offset="0.722656" stop-color="#3A4961"/>
<stop offset="0.726562" stop-color="#394861"/>
<stop offset="0.730469" stop-color="#394860"/>
<stop offset="0.734375" stop-color="#39475F"/>
<stop offset="0.738281" stop-color="#38475E"/>
<stop offset="0.742188" stop-color="#38465D"/>
<stop offset="0.746094" stop-color="#38455C"/>
<stop offset="0.75" stop-color="#37455B"/>
<stop offset="0.753906" stop-color="#37445A"/>
<stop offset="0.757812" stop-color="#374459"/>
<stop offset="0.761719" stop-color="#364358"/>
<stop offset="0.765625" stop-color="#364257"/>
<stop offset="0.769531" stop-color="#364256"/>
<stop offset="0.773438" stop-color="#354155"/>
<stop offset="0.777344" stop-color="#354154"/>
<stop offset="0.78125" stop-color="#354054"/>
<stop offset="0.785156" stop-color="#343F53"/>
<stop offset="0.789062" stop-color="#343F52"/>
<stop offset="0.792969" stop-color="#343E51"/>
<stop offset="0.796875" stop-color="#333E50"/>
<stop offset="0.800781" stop-color="#333D4F"/>
<stop offset="0.804688" stop-color="#333C4E"/>
<stop offset="0.808594" stop-color="#323C4D"/>
<stop offset="0.8125" stop-color="#323B4C"/>
<stop offset="0.816406" stop-color="#323B4B"/>
<stop offset="0.820312" stop-color="#323A4A"/>
<stop offset="0.824219" stop-color="#313A49"/>
<stop offset="0.828125" stop-color="#313948"/>
<stop offset="0.832031" stop-color="#313847"/>
<stop offset="0.835938" stop-color="#303846"/>
<stop offset="0.839844" stop-color="#303746"/>
<stop offset="0.84375" stop-color="#303745"/>
<stop offset="0.847656" stop-color="#2F3644"/>
<stop offset="0.851562" stop-color="#2F3543"/>
<stop offset="0.855469" stop-color="#2F3542"/>
<stop offset="0.859375" stop-color="#2E3441"/>
<stop offset="0.863281" stop-color="#2E3440"/>
<stop offset="0.867188" stop-color="#2E333F"/>
<stop offset="0.871094" stop-color="#2D323E"/>
<stop offset="0.875" stop-color="#2D323D"/>
<stop offset="0.878906" stop-color="#2D313C"/>
<stop offset="0.882812" stop-color="#2C313B"/>
<stop offset="0.886719" stop-color="#2C303A"/>
<stop offset="0.890625" stop-color="#2C2F39"/>
<stop offset="0.894531" stop-color="#2B2F39"/>
<stop offset="0.898438" stop-color="#2B2E38"/>
<stop offset="0.902344" stop-color="#2B2E37"/>
<stop offset="0.90625" stop-color="#2A2D36"/>
<stop offset="0.910156" stop-color="#2A2C35"/>
<stop offset="0.914062" stop-color="#2A2C34"/>
<stop offset="0.917969" stop-color="#2A2B33"/>
<stop offset="0.921875" stop-color="#292B32"/>
<stop offset="0.925781" stop-color="#292A31"/>
<stop offset="0.929688" stop-color="#292930"/>
<stop offset="0.933594" stop-color="#28292F"/>
<stop offset="0.9375" stop-color="#28282E"/>
<stop offset="0.941406" stop-color="#28282D"/>
<stop offset="0.945312" stop-color="#27272C"/>
<stop offset="0.949219" stop-color="#27272C"/>
<stop offset="0.953125" stop-color="#27262B"/>
<stop offset="0.957031" stop-color="#26252A"/>
<stop offset="0.960938" stop-color="#262529"/>
<stop offset="0.964844" stop-color="#262428"/>
<stop offset="0.96875" stop-color="#252427"/>
<stop offset="0.972656" stop-color="#252326"/>
<stop offset="0.976562" stop-color="#252225"/>
<stop offset="0.980469" stop-color="#242224"/>
<stop offset="0.984375" stop-color="#242123"/>
<stop offset="0.988281" stop-color="#242122"/>
<stop offset="0.992188" stop-color="#232021"/>
<stop offset="0.996094" stop-color="#231F20"/>
<stop offset="1" stop-color="#231F20"/>
</radialGradient>
</defs>
</svg>
