<svg width="187" height="187" viewBox="0 0 187 187" fill="none" xmlns="http://www.w3.org/2000/svg">
<path d="M71.9066 89.5581C71.9066 84.1839 70.3748 81.4264 67.3116 81.2748C66.0932 81.2175 64.9034 81.4069 63.7452 81.8607C62.8216 82.1911 62.2041 82.5185 61.8723 82.8493V95.6757C63.8317 96.9058 65.5719 97.482 67.0891 97.3877C70.3034 97.1754 71.9061 94.569 71.9061 89.5577L71.9066 89.5581ZM75.6849 89.7806C75.6849 92.5105 75.045 94.7764 73.7576 96.5788C72.3234 98.6183 70.3354 99.6687 67.7936 99.726C65.8775 99.7877 63.9036 99.1868 61.8723 97.9275V109.584L58.5862 108.412V82.5374C59.1259 81.8762 59.8192 81.3078 60.6558 80.8254C62.6117 79.6856 64.9884 79.0988 67.7887 79.0701L67.8354 79.1167C70.3913 79.0847 72.3618 80.1297 73.7455 82.2634C75.0358 84.217 75.6829 86.7204 75.6829 89.7806H75.6849ZM95.7627 97.431C95.7627 101.093 95.3959 103.629 94.6618 105.039C93.9248 106.448 92.5232 107.574 90.4526 108.413C88.774 109.074 86.958 109.435 85.0099 109.496L84.4667 107.424C86.4484 107.154 87.8427 106.884 88.6516 106.615C90.2442 106.075 91.3373 105.248 91.9373 104.14C92.4192 103.237 92.6563 101.515 92.6563 98.9642V98.1082C91.5481 98.6149 90.3982 98.9973 89.2069 99.2553C88.0157 99.5127 86.8103 99.64 85.5919 99.6366C83.9741 99.6366 82.5467 99.1304 81.3176 98.1082C79.9368 96.9966 79.2465 95.5868 79.2465 93.8786V80.1962L82.5326 79.0706V92.8423C82.5326 94.3139 83.0073 95.4469 83.9561 96.2412C84.9049 97.036 86.1345 97.4174 87.6416 97.3887C89.1472 97.3566 90.7616 96.7741 92.4765 95.6334V79.5666H95.7627V97.431ZM108.594 99.5463L107.512 99.5929C105.654 99.5929 104.204 99.1508 103.17 98.2627C102.138 97.3741 101.62 96.1484 101.62 94.5831V81.6304H99.3738V79.5622H101.62V74.0738L104.902 72.9049V79.5661H108.594V81.6343H104.902V94.4971C104.902 95.7306 105.232 96.6046 105.895 97.1152C106.467 97.5359 107.365 97.7769 108.594 97.8376V99.5502V99.5463ZM128.49 99.2766H125.204V86.5873C125.204 85.2965 124.902 84.1849 124.302 83.257C123.608 82.2071 122.644 81.6819 121.408 81.6819C119.902 81.6819 118.017 82.4762 115.756 84.0663V99.2766H112.47V68.945L115.756 67.9092V81.7242C117.855 80.1953 120.149 79.4335 122.641 79.4335C124.38 79.4335 125.79 80.0194 126.868 81.1888C127.95 82.3582 128.489 83.8142 128.489 85.5549V99.2815L128.49 99.2766ZM145.955 89.0402C145.955 86.976 145.559 85.2712 144.783 83.9216C143.855 82.2785 142.414 81.4108 140.466 81.3214C136.864 81.5303 135.066 84.1125 135.066 89.0611C135.066 91.3304 135.44 93.2261 136.195 94.7434C137.158 96.6818 138.603 97.6389 140.53 97.6068C144.147 97.5782 145.955 94.7225 145.955 89.0354V89.0402ZM149.554 89.0626C149.554 92.0004 148.802 94.4465 147.308 96.4C145.658 98.5868 143.379 99.6838 140.47 99.6838C137.587 99.6838 135.34 98.5824 133.719 96.4C132.248 94.4465 131.515 92.0009 131.515 89.0626C131.515 86.3007 132.31 83.9765 133.899 82.0847C135.577 80.0777 137.785 79.0711 140.514 79.0711C143.242 79.0711 145.464 80.0777 147.175 82.0847C148.76 83.977 149.559 86.3007 149.559 89.0626H149.554ZM168.392 99.2766H165.106V85.8678C165.106 84.3967 164.664 83.2497 163.779 82.4223C162.899 81.5983 161.716 81.1995 160.246 81.2315C158.685 81.2602 157.2 81.7713 155.791 82.76V99.2766H152.505V82.3538C154.396 80.9765 156.136 80.0767 157.725 79.6565C159.224 79.2601 160.543 79.0706 161.687 79.0706C162.467 79.0706 163.201 79.1454 163.891 79.297C165.181 79.5958 166.231 80.1491 167.04 80.9619C167.943 81.8607 168.392 82.9441 168.392 84.2029V99.2766Z" fill="#646464"/>
<mask id="mask0_304_2" style="mask-type:luminance" maskUnits="userSpaceOnUse" x="5" y="69" width="32" height="31">
<path d="M5.84485 69.0273H36.316V99.7472H5.84485V69.0273Z" fill="white"/>
</mask>
<g mask="url(#mask0_304_2)">
<mask id="mask1_304_2" style="mask-type:luminance" maskUnits="userSpaceOnUse" x="5" y="69" width="32" height="31">
<path d="M26.1309 69.0702C24.4402 69.0784 22.8253 69.2222 21.4052 69.4739C17.2198 70.2138 16.4605 71.7616 16.4605 74.6168V78.3874H26.3495V79.6442H12.7444C9.8702 79.6442 7.35313 81.3728 6.56706 84.6604C5.65905 88.4289 5.61824 90.7803 6.56706 94.7155C7.27006 97.6451 8.94908 99.7317 11.8227 99.7317H15.2231V95.2116C15.2231 91.9458 18.0472 89.0654 21.4003 89.0654H31.2787C34.0285 89.0654 36.2234 86.7999 36.2234 84.0375V74.6164C36.2234 71.9351 33.9624 69.9204 31.2787 69.4734C29.5802 69.1906 27.8172 69.0619 26.1265 69.0697L26.1309 69.0702ZM20.7765 72.1022C21.7982 72.1022 22.6324 72.9505 22.6324 73.9935C22.6324 75.0327 21.7982 75.8732 20.7765 75.8732C19.7514 75.8732 18.9207 75.0327 18.9207 73.9935C18.9207 72.9505 19.751 72.1022 20.7765 72.1022Z" fill="white"/>
</mask>
<g mask="url(#mask1_304_2)">
<path d="M5.6178 69.0615V99.7313H36.223V69.0615H5.6178Z" fill="#6E7982"/>
</g>
</g>
<mask id="mask2_304_2" style="mask-type:luminance" maskUnits="userSpaceOnUse" x="16" y="79" width="31" height="32">
<path d="M16.4181 79.5986H46.8892V110.567H16.4181V79.5986Z" fill="white"/>
</mask>
<g mask="url(#mask2_304_2)">
<mask id="mask3_304_2" style="mask-type:luminance" maskUnits="userSpaceOnUse" x="16" y="79" width="31" height="32">
<path d="M37.4672 79.6406V84.034C37.4672 87.4406 34.5804 90.307 31.2894 90.307H21.4115C18.706 90.307 16.4668 92.6239 16.4668 95.3348V104.756C16.4668 107.438 18.7973 109.015 21.4115 109.784C24.5374 110.705 27.5442 110.872 31.2894 109.784C33.7793 109.063 36.2341 107.612 36.2341 104.756V100.985H26.3558V99.7291H41.1789C44.0531 99.7291 45.1238 97.7231 46.1232 94.7129C47.1556 91.6134 47.1118 88.6333 46.1232 84.6573C45.4129 81.7953 44.0565 79.6416 41.1789 79.6416H37.4672V79.6406ZM31.9113 103.5C32.9364 103.5 33.7671 104.34 33.7671 105.379C33.7671 106.422 32.9368 107.271 31.9113 107.271C30.8896 107.271 30.0554 106.422 30.0554 105.379C30.0554 104.34 30.8896 103.5 31.9113 103.5Z" fill="white"/>
</mask>
<g mask="url(#mask3_304_2)">
<path d="M16.4668 79.6406V110.872H47.1555V79.6406H16.4668Z" fill="#8E8870"/>
</g>
</g>
<mask id="mask4_304_2" style="mask-type:luminance" maskUnits="userSpaceOnUse" x="173" y="72" width="8" height="5">
<path d="M173.374 72.5088H180.981V76.7374H173.374V72.5088Z" fill="white"/>
</mask>
<g mask="url(#mask4_304_2)">
<path d="M174.791 76.6358H175.368V73.0213H176.732V72.5903H173.427V73.0213H174.791V76.6358ZM177.243 76.6358H177.736V73.3346L178.801 76.6358H179.349L180.462 73.3448V76.6358H180.999V72.5898H180.289L179.073 76.0557L178.035 72.5898H177.241V76.6358" fill="#646464"/>
</g>
</svg>
